<?xml version="1.0" standalone="no"?>
<!DOCTYPE svg PUBLIC "-//W3C//DTD SVG 20010904//EN"
 "http://www.w3.org/TR/2001/REC-SVG-20010904/DTD/svg10.dtd">
<svg version="1.0" xmlns="http://www.w3.org/2000/svg"
 width="500.000000pt" height="500.000000pt" viewBox="0 0 500.000000 500.000000"
 preserveAspectRatio="xMidYMid meet">

<g transform="translate(0.000000,500.000000) scale(0.100000,-0.100000)"
fill="#000000" stroke="none">
<path d="M2075 3386 c-87 -27 -145 -75 -145 -118 0 -11 -13 -38 -28 -61 -16
-23 -63 -107 -104 -187 -89 -170 -152 -278 -355 -610 -191 -312 -296 -500
-401 -720 -77 -162 -83 -178 -78 -223 7 -66 37 -111 92 -138 37 -17 50 -19 70
-11 48 23 274 346 554 797 247 397 476 723 593 846 l54 57 7 -136 c3 -74 6
-269 6 -432 0 -163 3 -393 7 -511 l6 -214 36 -36 c52 -53 171 -75 252 -48 101
34 166 130 450 665 175 332 253 469 340 603 75 113 89 155 69 210 -18 51 -33
65 -102 96 -47 21 -76 27 -133 28 -96 0 -152 -26 -193 -91 -50 -80 -227 -421
-282 -544 -29 -65 -59 -118 -66 -118 -32 0 -44 31 -44 113 0 94 -15 288 -31
397 -13 89 -42 168 -71 193 -29 24 -113 23 -161 -3 -20 -11 -37 -16 -37 -11 0
6 5 13 10 16 16 10 11 68 -9 101 -53 87 -190 127 -306 90z"/>
<path d="M3893 3250 c-18 -10 -42 -38 -53 -60 -18 -35 -32 -47 -94 -75 -85
-39 -103 -62 -170 -219 -92 -214 -396 -1105 -396 -1159 0 -36 44 -84 88 -97
54 -15 161 -12 220 5 65 20 123 74 145 135 49 140 438 1330 443 1356 8 42 -20
100 -57 119 -39 21 -88 19 -126 -5z"/>
</g>
</svg>
